<svg aria-hidden="true" style="position: absolute; width: 0; height: 0; overflow: hidden;" version="1.1" xmlns="http://www.w3.org/2000/svg" xmlns:xlink="http://www.w3.org/1999/xlink">
<defs>
<symbol id="icon-milk" viewBox="0 0 32 32">
<path d="M26.538 13.421c-0.198-0.239-0.492-0.378-0.802-0.378h-19.471c-0.31 0-0.604 0.139-0.802 0.378s-0.278 0.554-0.219 0.859l3.245 16.877c0.094 0.49 0.523 0.844 1.021 0.844h12.981c0.499 0 0.927-0.354 1.021-0.844l3.245-16.877c0.059-0.305-0.022-0.62-0.219-0.859zM24.344 15.123c-0.478 3.857-3.774 6.473-8.344 6.473s-7.866-2.616-8.344-6.473h16.688zM21.631 29.92h-11.263l-1.684-8.758c1.847 1.583 4.388 2.514 7.315 2.514s5.468-0.931 7.315-2.514l-1.684 8.758z"></path>
<path d="M7.53 7.891c0.521 0.521 1.213 0.807 1.949 0.807s1.428-0.287 1.949-0.807l0.287-0.287c0.488 0.267 0.999 0.488 1.529 0.659v1.111c0 1.52 1.236 2.756 2.756 2.756s2.756-1.236 2.756-2.756v-1.111c0.53-0.171 1.041-0.391 1.529-0.659l0.287 0.287c0.521 0.521 1.213 0.807 1.949 0.807s1.428-0.287 1.949-0.807c1.075-1.075 1.075-2.823 0-3.898l-0.347-0.347c0.503-0.732 0.811-1.256 0.811-2.606 0-0.574-0.466-1.040-1.040-1.040h-15.789c-0.574 0-1.040 0.466-1.040 1.040 0 1.35 0.308 1.874 0.811 2.606l-0.347 0.347c-1.075 1.075-1.075 2.823-0 3.898zM9.001 5.464l0.942-0.942c0.336-0.336 0.402-0.857 0.159-1.266-0.192-0.323-0.364-0.574-0.503-0.776-0.11-0.16-0.195-0.284-0.26-0.399h13.322c-0.065 0.116-0.15 0.239-0.26 0.399-0.139 0.201-0.311 0.452-0.503 0.776-0.243 0.409-0.177 0.93 0.159 1.266l0.942 0.942c0.128 0.128 0.198 0.297 0.198 0.478s-0.070 0.35-0.198 0.478c-0.128 0.128-0.297 0.198-0.478 0.198s-0.35-0.070-0.478-0.198l-0.866-0.866c-0.354-0.354-0.909-0.405-1.322-0.124-0.719 0.49-1.514 0.834-2.365 1.023-0.476 0.106-0.815 0.528-0.815 1.015v1.905c0 0.373-0.303 0.676-0.676 0.676s-0.676-0.303-0.676-0.676v-1.905c0-0.488-0.339-0.91-0.815-1.015-0.851-0.189-1.647-0.533-2.365-1.023-0.178-0.121-0.382-0.181-0.586-0.181-0.268 0-0.535 0.104-0.736 0.305l-0.866 0.866c-0.128 0.128-0.297 0.198-0.478 0.198s-0.35-0.070-0.478-0.198c-0.128-0.128-0.198-0.297-0.198-0.478s0.070-0.351 0.198-0.478z"></path>
</symbol>
<symbol id="icon-heart-shaped-ice-cream" viewBox="0 0 32 32">
<path d="M26.929 8.142c-0.12-0.173-0.312-0.282-0.523-0.298-0.204-0.015-0.404-0.045-0.599-0.085 0.313-0.582 0.48-1.234 0.48-1.909 0-2.19-1.752-3.976-3.927-4.036 0.068-0.208 0.149-0.413 0.248-0.612 0.093-0.189 0.096-0.411 0.008-0.602s-0.258-0.333-0.463-0.385c-2.112-0.538-4.365-0.025-6.032 1.34-1.22-1.006-2.738-1.554-4.34-1.554-1.826 0-3.543 0.711-4.834 2.002s-2.002 3.008-2.002 4.834 0.711 3.543 2.002 4.834l5.841 5.841v11.157c0 1.837 1.495 3.332 3.332 3.332s3.332-1.495 3.332-3.332v-11.157l5.841-5.841c0.816-0.816 1.415-1.831 1.733-2.935 0.058-0.203 0.022-0.421-0.098-0.594zM22.249 3.21c1.455 0 2.64 1.184 2.64 2.639 0 0.504-0.142 0.989-0.406 1.407-1.403-0.799-2.348-2.311-2.348-4.016 0-0.009 0.001-0.018 0.001-0.027 0.038-0.002 0.076-0.003 0.114-0.003zM16.121 30.6c-1.065 0-1.932-0.867-1.932-1.932v-9.867c0.57 0.371 1.236 0.571 1.932 0.571s1.362-0.2 1.932-0.571v9.867c0 1.065-0.867 1.932-1.932 1.932zM24.304 10.681l-6.662 6.662c-0.406 0.406-0.947 0.63-1.521 0.63s-1.115-0.224-1.521-0.63l-6.662-6.662c-1.027-1.027-1.592-2.392-1.592-3.844s0.566-2.817 1.592-3.844c1.027-1.027 2.392-1.592 3.844-1.592s2.817 0.566 3.844 1.592c0.273 0.273 0.716 0.273 0.99 0 1.158-1.158 2.786-1.724 4.396-1.563-0.184 0.582-0.277 1.188-0.277 1.811 0 1.529 0.574 2.986 1.617 4.103 0.827 0.886 1.888 1.494 3.050 1.761-0.268 0.584-0.64 1.12-1.097 1.577z"></path>
</symbol>
<symbol id="icon-apples" viewBox="0 0 32 32">
<path d="M29.626 21.411c-1.292-0.458-2.382-0.344-3.242 0.018 0.145-0.877 0.47-1.832 1.17-2.481 0.431-0.4 0.456-1.074 0.056-1.505s-1.074-0.456-1.505-0.056c-1.229 1.14-1.706 2.748-1.874 4.081-0.32-0.144-0.673-0.253-1.058-0.311l1.89-9.83c0.060-0.312-0.022-0.634-0.225-0.879s-0.503-0.387-0.821-0.387h-0.204c0.094-0.5 0.141-0.997 0.137-1.47-0.016-1.994-0.903-3.495-2.374-4.017-1.41-0.5-2.59-0.35-3.507 0.066 0.145-0.976 0.494-2.063 1.282-2.794 0.431-0.4 0.456-1.074 0.056-1.505s-1.074-0.456-1.505-0.056c-1.32 1.225-1.815 2.965-1.982 4.386-0.735-0.348-1.644-0.527-2.708-0.33-1.094-1.571-2.613-2.296-4.089-1.942-1.451 0.349-2.358 1.115-2.901 1.962-0.41-0.899-0.712-2.001-0.452-3.036 0.143-0.57-0.203-1.149-0.773-1.292s-1.149 0.203-1.292 0.773c-0.439 1.746 0.095 3.476 0.729 4.758-1.016 0.137-2.117 0.65-3.049 1.866-0.578 0.755-0.773 1.698-0.596 2.7-0.173 0.065-0.329 0.173-0.449 0.318-0.202 0.245-0.285 0.567-0.225 0.879l3.809 19.809c0.096 0.501 0.535 0.864 1.046 0.864h15.237c0.511 0 0.949-0.362 1.046-0.864l0.038-0.195c0.287 0.198 0.596 0.363 0.927 0.487 1.266 0.471 2.447 0.278 3.044 0.118 0.316 0.085 0.795 0.179 1.364 0.179 0.506 0 1.084-0.075 1.68-0.297 2.36-0.879 3.614-3.839 3.596-6.178-0.015-1.904-0.866-3.339-2.276-3.839zM22.674 12.191c-0.49 4.705-4.452 7.91-9.971 7.91s-9.481-3.204-9.971-7.91h19.942zM16.032 7.515c0.184 0.349 0.536 0.567 0.93 0.567s0.746-0.218 0.93-0.567c0.029-0.048 0.29-0.466 0.769-0.777 0.629-0.408 1.35-0.46 2.203-0.157 0.851 0.302 0.952 1.518 0.956 2.027 0.004 0.463-0.064 0.962-0.191 1.453h-7.126c0.236-1.19 0.094-2.492-0.289-3.669 0.377 0.022 0.724 0.137 1.047 0.346 0.479 0.311 0.74 0.729 0.769 0.777zM3.078 8.724c0.55-0.719 1.182-1.068 1.932-1.069h0.002c0.57 0 1.016 0.208 1.066 0.232 0.341 0.19 0.749 0.172 1.079-0.037 0.331-0.211 0.51-0.591 0.481-0.983-0.006-0.077-0.115-1.893 1.983-2.397 0.876-0.211 1.625 0.754 1.906 1.178 0.807 1.22 1.221 3.108 0.777 4.413h-9.349c-0.141-0.443-0.179-0.943 0.122-1.336zM5.852 29.87l-2.111-10.978c0.138 0.133 0.281 0.263 0.427 0.389 2.208 1.901 5.239 2.948 8.535 2.948s6.328-1.047 8.535-2.948c0.052-0.044 0.102-0.090 0.152-0.135l-0.431 2.243c-0.020 0.007-0.041 0.013-0.061 0.021-1.41 0.5-2.261 1.935-2.276 3.839-0.009 1.164 0.297 2.483 0.898 3.622l-0.192 0.999h-13.477zM27.562 29.432c-0.943 0.351-1.881 0.017-1.916 0.005-0.25-0.097-0.518-0.099-0.768-0-0.009 0.004-0.96 0.352-1.917-0.005-1.338-0.498-2.223-2.556-2.21-4.165 0.004-0.466 0.095-1.578 0.858-1.849 0.349-0.124 0.661-0.175 0.939-0.175 1.107 0 1.657 0.812 1.782 1.024 0.184 0.35 0.535 0.569 0.931 0.569s0.747-0.219 0.931-0.569c0.156-0.265 0.977-1.468 2.721-0.849 0.763 0.271 0.854 1.383 0.858 1.849 0.013 1.609-0.872 3.667-2.21 4.166z"></path>
</symbol>
<symbol id="icon-cone-cream-dessert-ice-sweet_113481" viewBox="0 0 18 32">
<path fill="#173156" style="fill: var(--color1, #173156)" d="M16.752 13.428c0.745-1.277 1.185-2.812 1.185-4.449 0-0.004 0-0.007 0-0.011v0.001c0.001-4.945-4.023-8.968-8.968-8.968s-8.968 4.023-8.968 8.968c0 0.003 0 0.007 0 0.010 0 1.637 0.44 3.172 1.208 4.491l-0.023-0.043c-0.509 0.477-0.826 1.153-0.826 1.903 0 1.439 1.166 2.606 2.605 2.606h0.016l2.367 7.359c0 0.005 0 0.009 0.004 0.014l1.152 3.585 0.549 1.706c0.268 0.818 1.025 1.399 1.918 1.399s1.649-0.58 1.913-1.384l0.004-0.014 2.854-8.877c0.001-0.006 0.003-0.010 0.004-0.015l-0 0.001 1.214-3.774h0.014c1.438-0.003 2.602-1.169 2.602-2.606 0-0.75-0.317-1.426-0.823-1.901l-0.001-0.001zM11.774 24.529l-0.142-0.142 0.277-0.277zM8.968 30.987c-0.085-0-0.167-0.011-0.246-0.030l0.007 0.002-0.736-0.733-0.537-1.663 1.509-1.51 1.51 1.511-0.008 0.024-0.525 1.638-0.735 0.733c-0.072 0.018-0.155 0.028-0.24 0.029h-0zM6.029 24.111l0.275 0.275-0.141 0.141zM6.6 24.091l-0.851-0.851-0.596-1.848 1.446-1.446 2.073 2.073zM4.001 17.805l0.156-0.156 0.048-0.026 0.048-0.026 2.052 2.051-1.294 1.294zM7.703 18.841c0.353 0.25 0.792 0.399 1.266 0.399s0.913-0.15 1.273-0.404l-0.007 0.005 0.808 0.808-2.074 2.074-2.073-2.074zM8.968 22.313l2.074 2.074-2.074 2.073-2.073-2.073zM10.622 28.114l-1.358-1.359 2.073-2.075 0.293 0.293zM12.775 21.414c0 0.005-0.003 0.010-0.004 0.014l-0.582 1.813-0.851 0.851-2.073-2.074 2.073-2.073 1.446 1.445zM11.632 19.649l2.053-2.051 0.048 0.026 0.048 0.026 0.156 0.156-1.009 3.138zM12.969 16.997c0.069 0.083 0.14 0.158 0.215 0.229l0.001 0.001c0.048 0.045 0.098 0.089 0.149 0.131l-1.996 1.996-0.786-0.785c0.235-0.241 0.416-0.536 0.52-0.865l0.004-0.016c0.72-0.176 1.351-0.413 1.943-0.714l-0.050 0.023zM6.6 19.354l-1.997-1.996c0.135-0.11 0.255-0.228 0.362-0.357l0.003-0.004c0.541 0.278 1.171 0.515 1.831 0.678l0.061 0.013c0.109 0.344 0.289 0.64 0.524 0.881l-0-0zM6.319 25.013c-0.001-0.004-0.003-0.009-0.004-0.013l-0-0.001-0.008-0.024 0.293-0.293 2.073 2.073-1.357 1.359zM14.973 16.924c-0 0-0 0-0 0-0.1 0-0.198-0.009-0.294-0.027l0.010 0.002c-0.159-0.029-0.3-0.077-0.432-0.144l0.009 0.004c-0.045-0.022-0.088-0.047-0.131-0.073-0.236-0.147-0.425-0.347-0.557-0.584l-0.004-0.008c-0.088-0.158-0.254-0.263-0.445-0.263-0.092 0-0.178 0.024-0.252 0.067l0.002-0.001c-0.079 0.045-0.151 0.085-0.223 0.119q-0.124 0.066-0.251 0.126c-0.534 0.265-1.154 0.48-1.804 0.615l-0.051 0.009c-0.211 0.044-0.372 0.214-0.402 0.427l-0 0.003c-0.005 0.044-0.013 0.081-0.022 0.118l0.001-0.007c-0.063 0.266-0.208 0.492-0.408 0.654l-0.002 0.002c-0.177 0.146-0.4 0.242-0.644 0.263l-0.004 0c-0.034 0-0.069 0.004-0.104 0.004-0 0-0.001 0-0.001 0-0.602 0-1.1-0.446-1.181-1.026l-0.001-0.006c-0.030-0.215-0.191-0.385-0.399-0.429l-0.003-0.001c-0.794-0.163-1.499-0.422-2.149-0.77l0.042 0.021c-0.069-0.036-0.141-0.075-0.22-0.119-0.018-0.010-0.036-0.018-0.054-0.026l-0.017-0.007c-0.014-0.005-0.027-0.010-0.041-0.013l-0.018-0.005c-0.016-0.004-0.032-0.007-0.048-0.009h-0.011c-0.017-0.002-0.038-0.004-0.058-0.004-0.001 0-0.001 0-0.002 0h-0.014l-0.050 0.004h-0.017c-0.023 0.003-0.043 0.008-0.063 0.014l0.003-0.001c-0.132 0.038-0.24 0.125-0.304 0.24l-0.001 0.003c-0.136 0.245-0.325 0.445-0.554 0.588l-0.007 0.004c-0.148 0.093-0.321 0.163-0.506 0.202l-0.010 0.002-0.038 0.009c-0.085 0.016-0.183 0.025-0.284 0.025-0 0-0 0-0 0v0c-0.879 0-1.592-0.713-1.592-1.592 0-0.567 0.296-1.065 0.743-1.347l0.007-0.004c0.144-0.091 0.238-0.25 0.238-0.43 0-0.102-0.030-0.197-0.082-0.277l0.001 0.002c-0.794-1.214-1.266-2.701-1.266-4.297 0-0.004 0-0.008 0-0.012v0.001c0-4.386 3.569-7.955 7.955-7.955s7.956 3.569 7.956 7.955c0 0.003 0 0.007 0 0.010 0 1.597-0.472 3.083-1.284 4.328l0.019-0.030c-0.051 0.078-0.081 0.173-0.081 0.275 0 0.18 0.094 0.339 0.236 0.429l0.002 0.001c0.453 0.286 0.749 0.784 0.749 1.351 0 0.879-0.713 1.592-1.592 1.592v0z"></path>
<path fill="#173156" style="fill: var(--color1, #173156)" d="M3.296 5.067c-0.034-0.026-0.078-0.042-0.125-0.042-0.068 0-0.129 0.033-0.167 0.083l-0 0.001c-0.734 0.988-1.194 2.218-1.248 3.553l-0 0.013c-0.060 1.235 0.218 2.449 0.778 3.418 0.037 0.063 0.104 0.104 0.181 0.104 0.115 0 0.209-0.093 0.209-0.209 0-0.039-0.010-0.075-0.029-0.106l0.001 0.001c-0.96-1.66-1.117-4.432 0.444-6.525 0.026-0.034 0.041-0.078 0.041-0.125 0-0.068-0.033-0.129-0.083-0.167l-0.001-0z"></path>
<path fill="#173156" style="fill: var(--color1, #173156)" d="M2.925 16.002c-0.397-0-0.719-0.323-0.719-0.72 0-0.208 0.088-0.395 0.229-0.527l0-0c0.043-0.038 0.070-0.094 0.070-0.156 0-0.115-0.093-0.209-0.209-0.209-0.057 0-0.108 0.023-0.146 0.060l0-0c-0.222 0.208-0.36 0.503-0.36 0.83 0 0.627 0.508 1.136 1.134 1.137h0c0.115 0 0.209-0.093 0.209-0.209s-0.093-0.209-0.209-0.209v0z"></path>
</symbol>
<symbol id="icon-telegram" viewBox="0 0 32 32">
<path fill="#fea5bb" style="fill: var(--color2, #fea5bb)" d="M32 16c0 8.837-7.163 16-16 16s-16-7.163-16-16c0-8.837 7.163-16 16-16s16 7.163 16 16z"></path>
<path fill="#fff" style="fill: var(--color3, #fff)" d="M12.867 18.375l-0.318 4.169c0.454 0 0.651-0.182 0.887-0.401l2.13-1.9 4.415 3.017c0.81 0.421 1.38 0.199 1.599-0.695l2.898-12.672 0.001-0.001c0.257-1.117-0.433-1.554-1.222-1.28l-17.032 6.086c-1.162 0.421-1.145 1.026-0.198 1.3l4.355 1.264 10.115-5.907c0.476-0.294 0.909-0.131 0.553 0.163l-8.182 6.857z"></path>
</symbol>
<symbol id="icon-github" viewBox="0 0 32 32">
<path fill="#fea5bb" style="fill: var(--color2, #fea5bb)" d="M32 16c0 8.837-7.163 16-16 16s-16-7.163-16-16c0-8.837 7.163-16 16-16s16 7.163 16 16z"></path>
<path fill="#fff" style="fill: var(--color3, #fff)" d="M16 6.588c-5.169 0-9.412 4.242-9.412 9.412 0 4.411 3.095 8.419 7.206 9.412v-3.114c-0.407 0.089-0.782 0.092-1.197-0.030-0.556-0.164-1.008-0.535-1.344-1.1-0.214-0.361-0.593-0.752-0.988-0.723l-0.097-1.099c0.855-0.073 1.595 0.521 2.034 1.259 0.195 0.328 0.419 0.52 0.708 0.605 0.278 0.082 0.578 0.043 0.926-0.080 0.088-0.698 0.407-0.959 0.648-1.326v-0.001c-2.451-0.366-3.428-1.666-3.816-2.693-0.514-1.363-0.238-3.066 0.671-4.142 0.018-0.021 0.050-0.076 0.037-0.114-0.417-1.258 0.091-2.299 0.11-2.41 0.481 0.142 0.559-0.143 2.089 0.786l0.264 0.159c0.111 0.066 0.076 0.028 0.186 0.020 0.639-0.173 1.312-0.269 1.975-0.278 0.668 0.009 1.337 0.104 2.002 0.285l0.086 0.009c-0.007-0.001 0.023-0.005 0.075-0.036 1.911-1.157 1.842-0.779 2.355-0.946 0.019 0.111 0.519 1.169 0.107 2.411-0.056 0.171 1.657 1.739 0.708 4.256-0.388 1.027-1.365 2.328-3.816 2.693v0.001c0.314 0.479 0.692 0.734 0.69 1.722v3.887c4.111-0.993 7.206-5 7.206-9.412 0-5.169-4.242-9.412-9.412-9.412v0z"></path>
</symbol>
<symbol id="icon-fb" viewBox="0 0 32 32">
<path fill="#fea5bb" style="fill: var(--color2, #fea5bb)" d="M16 32c8.837 0 16-7.163 16-16s-7.163-16-16-16c-8.837 0-16 7.163-16 16s7.163 16 16 16z"></path>
<path fill="#fff" style="fill: var(--color3, #fff)" d="M20.446 15.982h-2.61v9.619h-3.955v-9.619h-1.881v-3.38h1.881v-2.187c0-1.564 0.739-4.014 3.99-4.014l2.929 0.012v3.281h-2.125c-0.349 0-0.839 0.175-0.839 0.921v1.989h2.955l-0.346 3.377z"></path>
</symbol>
<symbol id="icon-Vector_w" viewBox="0 0 26 32">
<path fill="none" stroke="#fff" style="stroke: var(--color3, #fff)" stroke-linejoin="round" stroke-linecap="round" stroke-miterlimit="4" stroke-width="6.4" d="M5.172 3.2l14.169 12.8-14.169 12.8"></path>
</symbol>
<symbol id="icon-Vector" viewBox="0 0 26 32">
<path fill="none" stroke="#d41443" style="stroke: var(--color4, #d41443)" stroke-linejoin="round" stroke-linecap="round" stroke-miterlimit="4" stroke-width="6.4" d="M5.172 3.2l14.169 12.8-14.169 12.8"></path>
</symbol>
</defs>
</svg>
